<?xml version="1.0" encoding="UTF-8"?>
<svg id="Layer_2" data-name="Layer 2" xmlns="http://www.w3.org/2000/svg" viewBox="0 0 5376.08 1990.57">
  <defs>
    <style>
      .cls-1 {
        fill: #ff5532;
        stroke-width: 0px;
      }
    </style>
  </defs>
  <g id="Layer_1-2" data-name="Layer 1">
    <g>
      <path class="cls-1" d="M1848.56,1087.04v-50.2c0-59.22-61.52-98.4-115.19-73.36-28.5,13.31-46.72,41.91-46.72,73.36v51.16c1.75,143.29-11.48,259.51-39.56,348.57-28.14,89.06-72.08,164.58-131.86,226.5-105.49,110.41-256.67,165.58-453.53,165.58-235.58,0-407.89-77.44-516.87-232.39-79.1-116.13-118.63-290.4-118.63-522.8v-36.7c0-31.45-18.21-60.05-46.72-73.36-11.28-5.26-22.91-7.69-34.24-7.69-42.57,0-80.94,34.25-80.95,81.04v36.71c0,127.7,11.33,242.37,33.67,340.81,24.2,106.6,62.21,198.5,113.05,273.13.46.67.94,1.34,1.39,2,71.18,101.21,164.38,178.19,276.99,228.81,106.75,48,232,72.34,372.31,72.34,241.72,0,433.59-72.45,570.27-215.31,76.88-79.72,133.9-177.25,169.5-289.99,33.59-106.41,48.99-236.69,47.09-398.23Z"/>
      <path class="cls-1" d="M1225.73,1274.01c0,11.98-.34,23.32-1.02,33.99v229.12c0,9.75-3.19,17.89-9.56,24.45-6.38,6.56-14.44,9.84-24.17,9.84s-17.8-3.28-24.17-9.84c-5.74-5.89-8.88-13.07-9.45-21.56.08-.95.11-1.9.11-2.89v-232.14c0-.98-.03-1.93-.11-2.88-.56-8.47-3.72-15.67-9.45-21.58-6.38-6.55-14.44-9.84-24.17-9.84s-17.8,3.29-24.17,9.84c-5.75,5.91-8.9,13.11-9.45,21.6-.08.94-.11,1.88-.11,2.85v232.14c0,.98.03,1.92.11,2.86-.57,8.49-3.72,15.68-9.45,21.59-6.38,6.56-14.44,9.84-24.17,9.84s-17.8-3.28-24.16-9.84c-5.74-5.9-8.89-13.09-9.45-21.59.07-.94.1-1.88.1-2.86v-232.14c0-.97-.03-1.91-.1-2.85-.57-8.49-3.72-15.69-9.46-21.6-6.38-6.55-14.43-9.84-24.17-9.84s-17.81,3.29-24.17,9.84c-5.74,5.91-8.9,13.12-9.45,21.61-.08.93-.11,1.87-.11,2.84v232.14c0,.97.03,1.91.11,2.84-.55,8.5-3.71,15.7-9.45,21.6-6.38,6.56-14.43,9.84-24.17,9.84s-17.81-3.28-24.17-9.84c-6.38-6.55-9.56-14.7-9.56-24.45v-232.06c-.69-10.69-1.02-21.99-1.02-33.9,0-64.49,10.4-109.99,31.29-136.53,13.39-17.07,33.43-28.65,60.14-34.74-.18-2.38-.27-4.79-.27-7.26v-537.45c0-22.55,7.36-41.42,22.13-56.61,14.73-15.17,33.38-22.77,55.95-22.77s41.2,7.6,55.95,22.77c14.74,15.19,22.13,34.06,22.13,56.61v537.45c0,2.53-.1,5.02-.28,7.45,28.03,6.65,48.55,19.58,61.58,38.81,19.9,29.37,29.86,74.39,29.86,135.11Z"/>
      <path class="cls-1" d="M2010.93,731.6l-54.95,25.64-183.5,85.63-61.38,28.65v1.44l-133.76,62.43v-1.43l-334.36,156.07s-.05.03-.08.04l-2.48,1.17s-.07.03-.1.04c-4.63,1.93-9.71,3.01-15.04,3.01-4.53,0-8.87-.77-12.91-2.2-15.14-5.32-25.99-19.74-25.99-36.7,0-.72.02-1.44.06-2.15v-518.01c0-71.3-58.33-131.02-129.64-130.65h-.59c-71.3-.37-129.64,59.35-129.64,130.65v518.01c.04.71.06,1.43.06,2.15,0,16.96-10.85,31.38-25.99,36.7-4.04,1.43-8.38,2.2-12.91,2.2-5.33,0-10.42-1.08-15.04-3.01-.03-.02-.06-.04-.1-.04l-2.48-1.17s-.05-.02-.08-.04l-334.36-156.07v1.43l-133.76-62.43v-1.44l-61.38-28.65-183.5-85.63-54.95-25.64c-136.1-63.52-136.1-257.05,0-320.57l82.34-38.43L814.93,78.28l100.87-47.07C960.39,10.4,1008.45,0,1056.5,0s96.12,10.4,140.7,31.21l100.87,47.07,630.52,294.31,82.34,38.43c136.1,63.52,136.1,257.05,0,320.57Z"/>
      <path class="cls-1" d="M2550.84,1249.79c-36.29-29.21-89.29-43.83-159.02-43.83-32.06,0-61.75,4.95-89.08,14.84-27.33,9.91-51.83,22.86-73.5,38.89s-40.53,33.23-56.56,51.6c-5.65,6.48-10.82,12.8-15.53,18.99v-23.94c0-24.49-8.02-45-24.05-61.49-16.03-16.5-36.29-24.75-60.79-24.75s-44.77,8.26-60.79,24.75c-16.03,16.5-24.03,37-24.03,61.49v583.85c0,24.49,8,45,24.03,61.49,16.01,16.5,36.28,24.74,60.79,24.74s44.76-8.24,60.79-24.74c16.03-16.5,24.05-37,24.05-61.49v-361.91c0-31.1,6.83-59.14,20.49-84.11,13.66-24.98,33.46-45,59.38-60.08,25.9-15.07,57.73-22.62,95.43-22.62s68.31,7.55,89.05,22.62c20.74,15.09,35.11,35.11,43.12,60.08,8.02,24.98,12.02,53.01,12.02,84.11v361.91c0,24.49,8,45,24.03,61.49,16.01,16.5,36.28,24.74,60.79,24.74s44.76-8.24,60.79-24.74c16.01-16.5,24.03-37,24.03-61.49v-361.91c0-59.38-6.85-113.32-20.5-161.86-13.66-48.54-38.63-87.42-74.93-116.64Z"/>
      <path class="cls-1" d="M2869.62,1220.1c-24.51,0-44.77,8.26-60.79,24.75-16.03,16.5-24.03,37-24.03,61.49v583.85c0,24.49,8,45,24.03,61.49,16.01,16.5,36.28,24.74,60.79,24.74s44.76-8.24,60.79-24.74c16.01-16.5,24.03-37,24.03-61.49v-583.85c0-24.49-8.02-45-24.03-61.49-16.03-16.5-36.29-24.75-60.79-24.75Z"/>
      <path class="cls-1" d="M2938.43,975.53c-13.19-10.35-36.28-15.55-69.27-15.55-30.17,0-52.55,4.95-67.15,14.84-14.62,9.91-21.91,28.52-21.91,55.83v26.87c0,26.39,6.59,44.77,19.8,55.13,13.19,10.37,35.81,15.55,67.86,15.55s55.13-4.94,69.27-14.84c14.14-9.89,21.21-28.5,21.21-55.83v-26.87c0-26.39-6.61-44.76-19.8-55.13Z"/>
      <path class="cls-1" d="M3714.29,1834.35c-16.5-15.55-37-23.32-61.49-23.32h-368.98v-737.94c0-24.49-8.72-45-26.16-61.49-17.44-16.5-37.46-24.75-60.07-24.75-26.39,0-48.08,8.26-65.04,24.75-16.96,16.5-25.44,37-25.44,61.49v817.12c0,24.49,8.24,45,24.74,61.49,16.5,16.5,37,24.74,61.49,24.74h459.46c24.49,0,45-7.77,61.49-23.32,16.48-15.55,24.74-35.11,24.74-58.67s-8.26-44.53-24.74-60.08Z"/>
      <path class="cls-1" d="M3995.86,975.53c-13.19-10.35-36.28-15.55-69.27-15.55-30.17,0-52.55,4.95-67.15,14.84-14.62,9.91-21.91,28.52-21.91,55.83v26.87c0,26.39,6.59,44.77,19.8,55.13,13.19,10.37,35.81,15.55,67.86,15.55s55.13-4.94,69.27-14.84c14.14-9.89,21.21-28.5,21.21-55.83v-26.87c0-26.39-6.61-44.76-19.8-55.13Z"/>
      <path class="cls-1" d="M3927.05,1220.1c-24.51,0-44.77,8.26-60.79,24.75-16.03,16.5-24.03,37-24.03,61.49v583.85c0,24.49,8,45,24.03,61.49,16.01,16.5,36.28,24.74,60.79,24.74s44.76-8.24,60.79-24.74c16.01-16.5,24.03-37,24.03-61.49v-583.85c0-24.49-8.02-45-24.03-61.49-16.03-16.5-36.29-24.75-60.79-24.75Z"/>
      <path class="cls-1" d="M4433.14,1131.75c4.71-13.66,13.42-25.68,26.15-36.05,12.73-10.35,30.88-15.55,54.44-15.55,16.01,0,32.51,2.13,49.47,6.36,16.96,4.23,29.69,6.35,38.19,6.35,17.89,0,33.68-6.83,47.35-20.49,13.66-13.66,20.5-32.29,20.5-55.85,0-20.73-6.61-37.45-19.8-50.18-13.21-12.73-29.71-21.91-49.49-27.57-19.78-5.64-40.04-8.48-60.79-8.48-94.24,0-164.92,23.1-212.05,69.27-47.13,46.19-70.68,102.72-70.68,169.64v65.04h-76.34c-22.62,0-41.47,7.31-56.54,21.91-15.09,14.62-22.62,33.23-22.62,55.83s7.53,41.25,22.62,55.85c15.07,14.62,33.92,21.91,56.54,21.91h76.34v500.45c0,24.49,8,45,24.03,61.49,16.01,16.5,36.28,24.74,60.79,24.74s44.76-8.24,60.79-24.74c16.03-16.5,24.05-37,24.05-61.49v-500.45h128.65c22.6,0,41.45-7.29,56.54-21.91,15.07-14.6,22.62-33.22,22.62-55.85s-7.55-41.21-22.62-55.83c-15.09-14.6-33.94-21.91-56.54-21.91h-128.65v-66.45c0-10.36,2.34-22.38,7.05-36.04Z"/>
      <path class="cls-1" d="M5347.1,1436.4c-19.33-45.24-45.48-85.06-78.47-119.46-32.99-34.4-70.92-61.49-113.8-81.29-42.88-19.78-88.36-29.69-136.42-29.69-62.2,0-121.11,16.03-176.71,48.08-55.61,32.05-100.61,77.99-135.01,137.83-34.4,59.86-51.6,132.19-51.6,216.99,0,72.59,15.77,137.63,47.35,195.11,31.58,57.49,76.82,102.97,135.72,136.42,58.9,33.46,128.41,50.18,208.53,50.18,47.11,0,92.82-7.77,137.13-23.32,44.29-15.55,78.69-33.68,103.21-54.42,26.39-20.74,39.58-43.83,39.58-69.29,0-18.83-6.85-35.33-20.5-49.47-13.66-14.14-30.86-21.21-51.59-21.21-15.09,0-31.12,4.25-48.08,12.73-10.37,5.66-21.91,12.49-34.64,20.5-12.73,8.02-29.45,14.84-50.18,20.49-20.74,5.66-48.54,8.48-83.41,8.48-37.7,0-73.28-9.19-106.73-27.56-33.47-18.37-60.81-45.24-82-80.59-12.4-20.66-21.17-43.99-26.32-69.97h466.68c22.62,0,42.42-7.07,59.38-21.21,16.96-14.14,25.9-32.51,26.87-55.13,0-50.88-9.67-98.96-28.98-144.2ZM4875.62,1410.96c17.91-17.91,39.11-30.64,63.63-38.17,24.49-7.53,50.88-11.32,79.16-11.32s56.78,6.36,82.7,19.09c25.9,12.73,47.58,29.91,65.02,51.59,17.44,21.67,27.11,46.19,29,73.52v9.89h-370.47c2.29-11.7,5.14-22.55,8.56-32.51,10.35-30.15,24.49-54.18,42.4-72.09Z"/>
    </g>
  </g>
</svg>